<!--?xml version="1.0" encoding="utf-8"?-->
<!-- Generator: Adobe Illustrator 18.0.0, SVG Export Plug-In . SVG Version: 6.00 Build 0)  -->

<svg version="1.1" id="_x32_" xmlns="http://www.w3.org/2000/svg" xmlns:xlink="http://www.w3.org/1999/xlink" x="0px" y="0px" viewBox="0 0 512 512" style="width: 256px; height: 256px; opacity: 1;" xml:space="preserve">
<style type="text/css">
	.st0{fill:#4B4B4B;}
</style>
<g>
	<path class="st0" d="M75.071,37.994c-85.775,27.432-91.109,189.36-50.785,282.24l136.988-10.244c0,0,18.469-81.1,17.828-160.524
		C178.753,106.136,154.083,12.727,75.071,37.994z" style="fill: rgb(255, 255, 255);"></path>
	<path class="st0" d="M29.257,356.393c0,0-4.604,131.482,87.014,121.318c81.18-9.006,49.805-135.703,49.805-135.703L29.257,356.393z
		" style="fill: rgb(255, 255, 255);"></path>
	<path class="st0" d="M436.927,37.994c-79.01-25.268-103.68,68.142-104.03,111.472c-0.642,79.425,17.828,160.524,17.828,160.524
		l136.986,10.244C528.038,227.354,522.704,65.426,436.927,37.994z" style="fill: rgb(255, 255, 255);"></path>
	<path class="st0" d="M345.925,342.008c0,0-31.375,126.697,49.803,135.703c91.619,10.164,87.016-121.318,87.016-121.318
		L345.925,342.008z" style="fill: rgb(255, 255, 255);"></path>
</g>
</svg>
