<svg xmlns="http://www.w3.org/2000/svg" width="987" height="1587" viewBox="0 0 987 1587">
  <g id="Human" transform="translate(-887 -14908)">
    <g id="楕円形_22" data-name="楕円形 22" transform="translate(887 14908)" fill="#fff" stroke="#707070" stroke-width="1">
      <circle cx="493.5" cy="493.5" r="493.5" stroke="none"/>
      <circle cx="493.5" cy="493.5" r="493" fill="none"/>
    </g>
    <g id="長方形_27" data-name="長方形 27" transform="translate(887 15895)" fill="#fff" stroke="#707070" stroke-width="1">
      <path d="M450,0h87A450,450,0,0,1,987,450V600a0,0,0,0,1,0,0H0a0,0,0,0,1,0,0V450A450,450,0,0,1,450,0Z" stroke="none"/>
      <path d="M450,.5h87A449.5,449.5,0,0,1,986.5,450V599.5a0,0,0,0,1,0,0H.5a0,0,0,0,1,0,0V450A449.5,449.5,0,0,1,450,.5Z" fill="none"/>
    </g>
  </g>
</svg>
